<?xml version="1.0" encoding="UTF-8" standalone="no"?>
<!-- Created with Inkscape (http://www.inkscape.org/) -->

<svg
   version="1.1"
   id="svg250"
   width="480"
   height="70"
   viewBox="0 0 480 70"
   sodipodi:docname="logo-JGI-phytozome.svg"
   inkscape:version="1.2.2 (b0a84865, 2022-12-01)"
   xmlns:inkscape="http://www.inkscape.org/namespaces/inkscape"
   xmlns:sodipodi="http://sodipodi.sourceforge.net/DTD/sodipodi-0.dtd"
   xmlns="http://www.w3.org/2000/svg"
   xmlns:svg="http://www.w3.org/2000/svg">
  <defs
     id="defs254">
    <clipPath
       clipPathUnits="userSpaceOnUse"
       id="clipPath272">
      <path
         d="M 0,70 H 480 V 0 H 0 Z"
         id="path270" />
    </clipPath>
  </defs>
  <sodipodi:namedview
     id="namedview252"
     pagecolor="#ffffff"
     bordercolor="#000000"
     borderopacity="0.25"
     inkscape:showpageshadow="2"
     inkscape:pageopacity="0.0"
     inkscape:pagecheckerboard="0"
     inkscape:deskcolor="#d1d1d1"
     showgrid="false"
     inkscape:zoom="2.0890625"
     inkscape:cx="177.11294"
     inkscape:cy="34.225879"
     inkscape:window-width="1511"
     inkscape:window-height="663"
     inkscape:window-x="0"
     inkscape:window-y="38"
     inkscape:window-maximized="0"
     inkscape:current-layer="layer3">
    <inkscape:page
       x="0"
       y="0"
       id="page256"
       width="480"
       height="70" />
  </sodipodi:namedview>
  <g
     id="g258"
     inkscape:groupmode="layer"
     inkscape:label="double-helix"
     transform="matrix(1.0010505,0,0,-1.0010505,0,71.755482)">
    <g
       id="g266">
      <g
         id="g268"
         clip-path="url(#clipPath272)">
        <g
           id="g274"
           transform="translate(105.7847,58.7358)">
          <path
             d="m 0,0 c 0,0 -1.517,-7.953 0.845,-13.793 2.364,-5.838 4.096,-8.042 4.096,-8.042 l 2.662,1.641 1.943,1.174 c 0,0 -3.808,5.724 -4.799,7.436 C 0.721,-4.628 0,0 0,0"
             style="fill:#5a5a5a;fill-opacity:1;fill-rule:nonzero;stroke:none"
             id="path276" />
        </g>
        <g
           id="g278"
           transform="translate(123.9272,11.8223)">
          <path
             d="m 0,0 c 0,0 1.519,7.954 -0.846,13.789 -2.364,5.84 -3.951,7.991 -3.951,7.991 l -4.719,-2.934 c 0,0 3.78,-5.552 4.77,-7.264 C -0.72,4.627 0,0 0,0"
             style="fill:#5a5a5a;fill-opacity:1;fill-rule:nonzero;stroke:none"
             id="path280" />
        </g>
        <g
           id="g282"
           transform="translate(98.2305,18.9072)">
          <path
             d="m 0,0 c 0,0 1.519,6.494 5.224,10.587 4.048,4.47 8.319,6.903 10.399,8.168 2.081,1.268 7.693,4.833 9.655,6.287 5.75,4.265 7.788,7.926 7.788,7.926 0,0 -0.963,-5.329 -3.971,-9.305 C 25.981,19.548 21.641,16.208 17.806,13.919 14.469,11.928 9.232,8.483 7.56,7.278 2.542,3.659 0,0 0,0"
             style="fill:#919090;fill-opacity:1;fill-rule:nonzero;stroke:none"
             id="path284" />
        </g>
        <g
           id="g286"
           transform="translate(114.7803,55.9375)">
          <path
             d="m 0,0 c -0.445,-1.315 -1.87,-2.021 -3.185,-1.577 -1.316,0.443 -2.023,1.869 -1.579,3.182 0.445,1.316 1.87,2.022 3.183,1.578 C -0.265,2.74 0.441,1.316 0,0"
             style="fill:#d3691b;fill-opacity:1;fill-rule:nonzero;stroke:none"
             id="path288" />
        </g>
        <g
           id="g290"
           transform="translate(130.0776,63.4082)">
          <path
             d="m 0,0 c 0,0 0.004,-2.534 -2.428,-3.481 -1.105,-0.432 -11.801,-2.77 -11.801,-2.77 0,0 11.005,1.77 12.414,0.286 1.18,-1.242 0.233,-3.679 -0.466,-4.748 -0.968,-1.475 -2.492,-2.351 -4.131,-2.955 -0.358,-0.132 -0.996,-0.24 -1.78,-0.33 0.01,-0.279 -0.014,-0.562 -0.077,-0.844 0.681,-0.133 1.171,-0.304 1.307,-0.527 1.121,-1.826 -5.434,-6.969 -5.434,-6.969 0,0 10.058,6.119 13.02,12.31 C 3.418,-4.187 0,0 0,0"
             style="fill:#5a5a5a;fill-opacity:1;fill-rule:nonzero;stroke:none"
             id="path292" />
        </g>
        <g
           id="g294"
           transform="translate(111.2949,49.5581)">
          <path
             d="M 0,0 C 0.236,0.706 1.003,1.084 1.709,0.849 2.416,0.609 2.794,-0.157 2.556,-0.862 2.316,-1.571 1.552,-1.949 0.846,-1.71 0.141,-1.474 -0.238,-0.706 0,0"
             style="fill:#fdba4d;fill-opacity:1;fill-rule:nonzero;stroke:none"
             id="path296" />
        </g>
        <g
           id="g298"
           transform="translate(114.5444,14.9443)">
          <path
             d="M 0,0 C 0.443,1.315 1.87,2.023 3.184,1.577 4.499,1.135 5.206,-0.293 4.762,-1.606 4.316,-2.922 2.892,-3.625 1.578,-3.183 0.263,-2.738 -0.442,-1.314 0,0"
             style="fill:#99bd3c;fill-opacity:1;fill-rule:nonzero;stroke:none"
             id="path300" />
        </g>
        <g
           id="g302"
           transform="translate(101.3647,13.624)">
          <path
             d="m 0,0 c -1.129,1.287 -0.083,3.684 0.662,4.724 1.025,1.433 2.587,2.245 4.25,2.782 0.345,0.11 0.952,0.201 1.69,0.273 C 6.56,8.076 6.554,8.376 6.591,8.681 6.036,8.817 5.643,8.981 5.529,9.185 c -1.045,1.869 5.719,6.736 5.719,6.736 0,0 -10.303,-5.699 -13.517,-11.762 -3.033,-5.722 0.21,-10.046 0.21,-10.046 0,0 0.1,2.532 2.568,3.378 1.124,0.387 11.905,2.281 11.905,2.281 0,0 -11.068,-1.314 -12.414,0.228"
             style="fill:#5a5a5a;fill-opacity:1;fill-rule:nonzero;stroke:none"
             id="path304" />
        </g>
        <g
           id="g306"
           transform="translate(118.3623,21.2412)">
          <path
             d="m 0,0 c -0.238,-0.708 -1.005,-1.087 -1.709,-0.849 -0.706,0.24 -1.086,1.004 -0.85,1.71 0.241,0.706 1.006,1.087 1.711,0.848 C -0.141,1.472 0.239,0.706 0,0"
             style="fill:#d3691b;fill-opacity:1;fill-rule:nonzero;stroke:none"
             id="path308" />
        </g>
        <g
           id="g310"
           transform="translate(104.5791,54.8232)">
          <path
             d="m 0,0 c 0,0 -1.079,5.185 0.77,7.949 1.22,1.827 2.989,2.166 2.989,2.166 0,0 -1.303,-1.195 -2.591,-3.973 C -0.183,3.23 0,0 0,0"
             style="fill:#919090;fill-opacity:1;fill-rule:nonzero;stroke:none"
             id="path312" />
        </g>
        <g
           id="g314"
           transform="translate(125.0469,15.0811)">
          <path
             d="m 0,0 c 0,0 0.949,-5.211 -0.968,-7.931 -1.266,-1.793 -3.043,-2.089 -3.043,-2.089 0,0 1.333,1.162 2.69,3.907 C 0.102,-3.235 0,0 0,0"
             style="fill:#919090;fill-opacity:1;fill-rule:nonzero;stroke:none"
             id="path316" />
        </g>
        <g
           id="g318"
           transform="translate(114.5278,20.7949)">
          <path
             d="m 0,0 c -0.597,-1.772 -2.52,-2.724 -4.293,-2.126 -1.772,0.599 -2.726,2.52 -2.126,4.295 0.597,1.772 2.52,2.724 4.292,2.125 C -0.355,3.697 0.599,1.774 0,0"
             style="fill:#648caa;fill-opacity:1;fill-rule:nonzero;stroke:none"
             id="path320" />
        </g>
        <g
           id="g322"
           transform="translate(104.2393,13.6152)">
          <path
             d="M 0,0 C 0.514,1.526 2.167,2.347 3.694,1.828 5.22,1.315 6.039,-0.337 5.524,-1.862 5.01,-3.388 3.356,-4.209 1.829,-3.691 0.306,-3.178 -0.514,-1.525 0,0"
             style="fill:#fdba4d;fill-opacity:1;fill-rule:nonzero;stroke:none"
             id="path324" />
        </g>
        <g
           id="g326"
           transform="translate(125.0728,57.502)">
          <path
             d="M 0,0 C -0.515,-1.524 -2.169,-2.345 -3.693,-1.829 -5.219,-1.314 -6.039,0.34 -5.522,1.865 -5.01,3.39 -3.357,4.208 -1.83,3.695 -0.305,3.18 0.513,1.525 0,0"
             style="fill:#648caa;fill-opacity:1;fill-rule:nonzero;stroke:none"
             id="path328" />
        </g>
        <g
           id="g330"
           transform="translate(115.4824,50.3521)">
          <path
             d="M 0,0 C 0.581,1.721 2.448,2.645 4.171,2.066 5.891,1.484 6.815,-0.382 6.235,-2.104 5.656,-3.826 3.788,-4.751 2.066,-4.168 0.345,-3.589 -0.58,-1.724 0,0"
             style="fill:#99bd3c;fill-opacity:1;fill-rule:nonzero;stroke:none"
             id="path332" />
        </g>
      </g>
    </g>
  </g>
  <g
     inkscape:groupmode="layer"
     id="layer4"
     inkscape:label="green-stripe-left"
     transform="matrix(0.75078785,0,0,0.75078785,0,1.6819499)">
    <g
       id="g338"
       transform="matrix(1.3333333,0,0,-1.3333333,0,19.110935)">
      <path
         d="m 0,0 v -36.901 l 0.001,-0.1 13.666,0.334 L 22.001,0 Z"
         style="fill:#629c42;fill-opacity:1;fill-rule:nonzero;stroke:none"
         id="path340" />
    </g>
  </g>
  <g
     inkscape:groupmode="layer"
     id="layer5"
     inkscape:label="green-stripe-right"
     transform="matrix(0.75078785,0,0,0.75078785,0,1.6819499)">
    <g
       id="g342"
       transform="matrix(1.3333333,0,0,-1.3333333,206.66666,20.000001)">
      <path
         d="M 0,0 H 324.5 L 316,-36.5 -7.75,-36.75"
         style="fill:#629c42;fill-opacity:1;fill-rule:nonzero;stroke:none"
         id="path344" />
    </g>
  </g>
  <g
     inkscape:groupmode="layer"
     id="layer3"
     inkscape:label="JGI"
     transform="matrix(0.75078785,0,0,0.75078785,0,1.6819499)">
    <g
       aria-label="JGI"
       transform="matrix(1.3333333,0,0,1.3333333,38.677066,67.998667)"
       id="text336"
       style="font-style:italic;font-weight:bold;font-size:50px;font-family:'Myriad Pro';-inkscape-font-specification:MyriadPro-BoldIt;fill:#5a5a5a">
      <path
         d="m 9.7,-12.35 c -0.95,5 -2.95,6.55 -6.1,6.55 -1.6,0 -2.95,-0.25 -4,-0.6 l -1.4,6.15 c 1.1,0.45 3.45,0.8 5.55,0.8 7.65,0 11.3,-3.45 12.95,-12 l 4.25,-22.25 h -7.2 z"
         id="path3845" />
      <path
         d="m 49.600001,-19.2 h -12.25 l -1.15,5.75 h 5.25 l -1.35,7.1 c -0.85,0.35 -2,0.6 -3.7,0.6 -5.3,0 -8.65,-2.85 -8.65,-8.5 0,-4.6 1.95,-8.6 4.9,-10.9 2.25,-1.75 5.2,-2.7 8.55,-2.7 3,0 5.65,0.65 7.15,1.35 l 2.15,-6.05 c -1.3,-0.65 -4.55,-1.5 -8.9,-1.5 -5.85,0 -11.1,1.75 -14.9,4.9 -4.3,3.65 -6.85,9.1 -6.85,15.4 0,4.3 1.55,8.05 4.25,10.4 2.75,2.5 6.6,3.7 11.2,3.7 4.25,0 8.35,-1.05 10.9,-1.9 z"
         id="path3847" />
      <path
         d="m 55.799998,-33.7 -6.4,33.7 h 7.2 l 6.4,-33.7 z"
         id="path3849" />
    </g>
  </g>
  <g
     inkscape:groupmode="layer"
     id="layer2"
     inkscape:label="project-subtitle"
     transform="matrix(0.75078785,0,0,0.75078785,0,1.6819499)">
    <g
       aria-label="THE  PLANT  GENOMICS  RESOURCE"
       id="text2199"
       style="font-style:italic;font-size:14.6667px;font-family:'Myriad Pro';-inkscape-font-specification:'Myriad Pro Italic';fill:#ffffff">
      <path
         d="m 213.60489,85.205681 h 1.71601 l 1.584,-8.389353 h 2.75734 l 0.29334,-1.496003 h -7.20135 l -0.29334,1.496003 h 2.72801 z"
         style="font-weight:600;-inkscape-font-specification:'Myriad Pro Semi-Bold Italic';fill:#5a5a5a"
         id="path3796" />
      <path
         d="m 221.11422,75.320325 -1.87734,9.885356 h 1.70134 l 0.836,-4.370677 h 4.01868 l -0.836,4.370677 h 1.716 l 1.87734,-9.885356 h -1.71601 l -0.76266,4.004009 h -4.01868 l 0.76267,-4.004009 z"
         style="font-weight:600;-inkscape-font-specification:'Myriad Pro Semi-Bold Italic';fill:#5a5a5a"
         id="path3798" />
      <path
         d="m 235.10624,79.368334 h -3.56401 l 0.49866,-2.596006 h 3.76935 l 0.27866,-1.452003 h -5.48534 l -1.87734,9.885356 h 5.70535 l 0.27866,-1.452003 h -3.98934 l 0.55734,-2.948007 h 3.54934 z"
         style="font-weight:600;-inkscape-font-specification:'Myriad Pro Semi-Bold Italic';fill:#5a5a5a"
         id="path3800" />
      <path
         d="m 241.36885,85.205681 h 1.67201 l 0.71867,-3.740009 c 0.264,0.02933 0.572,0.07333 0.924,0.07333 1.17333,0 2.30267,-0.308001 3.09467,-0.938669 0.704,-0.557335 1.26134,-1.51067 1.26134,-2.684006 0,-0.880002 -0.33734,-1.525337 -0.90934,-1.965338 -0.64533,-0.513335 -1.61333,-0.704002 -2.53734,-0.704002 -0.88,0 -1.77467,0.088 -2.376,0.234668 z m 3.28535,-8.506686 c 0.20533,-0.05867 0.528,-0.088 0.95333,-0.088 0.968,0 1.716,0.381335 1.716,1.437337 0,1.173336 -0.968,2.097338 -2.40533,2.097338 -0.36667,0 -0.61601,-0.02933 -0.89467,-0.088 z"
         style="font-weight:600;-inkscape-font-specification:'Myriad Pro Semi-Bold Italic';fill:#5a5a5a"
         id="path3802" />
      <path
         d="m 249.27418,85.205681 h 5.58801 l 0.27867,-1.496004 h -3.87201 l 1.584,-8.389352 h -1.70134 z"
         style="font-weight:600;-inkscape-font-specification:'Myriad Pro Semi-Bold Italic';fill:#5a5a5a"
         id="path3804" />
      <path
         d="m 261.81417,82.389674 0.27867,2.816007 h 1.78934 l -1.24667,-9.885356 h -2.14134 l -4.95735,9.885356 h 1.81867 l 1.34934,-2.816007 z m -2.56667,-1.320003 1.20267,-2.464005 c 0.27867,-0.586668 0.54267,-1.276003 0.80667,-1.877338 h 0.0293 c 0.044,0.586668 0.10267,1.349336 0.14667,1.877338 l 0.27866,2.464005 z"
         style="font-weight:600;-inkscape-font-specification:'Myriad Pro Semi-Bold Italic';fill:#5a5a5a"
         id="path3806" />
      <path
         d="m 266.6395,85.205681 0.792,-4.22401 c 0.27867,-1.46667 0.484,-2.684006 0.58667,-3.622675 l 0.044,-0.01467 c 0.23467,1.085336 0.484,1.892005 0.93867,3.182674 l 1.77467,4.678678 h 1.74534 l 1.87733,-9.885356 h -1.59867 l -0.82133,4.341343 c -0.264,1.42267 -0.396,2.376006 -0.44,3.344008 h -0.044 c -0.22,-0.982669 -0.45467,-1.892005 -0.88001,-3.094674 l -1.73067,-4.590677 h -1.96533 l -1.87734,9.885356 z"
         style="font-weight:600;-inkscape-font-specification:'Myriad Pro Semi-Bold Italic';fill:#5a5a5a"
         id="path3808" />
      <path
         d="m 276.34884,85.205681 h 1.716 l 1.58401,-8.389353 h 2.75734 l 0.29333,-1.496003 h -7.20135 l -0.29333,1.496003 h 2.728 z"
         style="font-weight:600;-inkscape-font-specification:'Myriad Pro Semi-Bold Italic';fill:#5a5a5a"
         id="path3810" />
      <path
         d="m 296.06082,79.779002 h -3.41734 l -0.264,1.37867 h 1.74534 l -0.46934,2.478672 c -0.308,0.132 -0.748,0.22 -1.276,0.22 -1.84801,0 -2.81601,-1.026669 -2.81601,-2.801339 0,-1.349337 0.572,-2.62534 1.452,-3.388008 0.73334,-0.630668 1.70134,-0.982669 2.75734,-0.982669 0.89467,0 1.62801,0.190667 2.09734,0.410668 l 0.528,-1.437337 c -0.352,-0.176 -1.232,-0.440001 -2.49334,-0.440001 -1.65733,0 -3.13867,0.528001 -4.22401,1.452003 -1.26133,1.100003 -1.98,2.75734 -1.98,4.502677 0,1.144003 0.352,2.229339 1.12934,2.992007 0.792,0.762669 1.892,1.144003 3.27067,1.144003 1.20267,0 2.33201,-0.293334 3.00667,-0.542668 z"
         style="font-weight:600;-inkscape-font-specification:'Myriad Pro Semi-Bold Italic';fill:#5a5a5a"
         id="path3812" />
      <path
         d="m 303.26216,79.368334 h -3.56401 l 0.49867,-2.596006 h 3.76934 l 0.27867,-1.452003 h -5.48535 l -1.87734,9.885356 h 5.70535 l 0.27867,-1.452003 h -3.98934 l 0.55733,-2.948007 h 3.54934 z"
         style="font-weight:600;-inkscape-font-specification:'Myriad Pro Semi-Bold Italic';fill:#5a5a5a"
         id="path3814" />
      <path
         d="m 305.75547,85.205681 0.792,-4.22401 c 0.27867,-1.46667 0.48401,-2.684006 0.58667,-3.622675 l 0.044,-0.01467 c 0.23467,1.085336 0.484,1.892005 0.93867,3.182674 l 1.77467,4.678678 h 1.74534 l 1.87734,-9.885356 h -1.59867 l -0.82134,4.341343 c -0.264,1.42267 -0.396,2.376006 -0.44,3.344008 h -0.044 c -0.22,-0.982669 -0.45467,-1.892005 -0.88,-3.094674 l -1.73067,-4.590677 h -1.96534 l -1.87734,9.885356 z"
         style="font-weight:600;-inkscape-font-specification:'Myriad Pro Semi-Bold Italic';fill:#5a5a5a"
         id="path3816" />
      <path
         d="m 319.38082,75.158991 c -1.33467,0 -2.58134,0.513335 -3.46134,1.37867 -1.188,1.144003 -1.86267,2.992007 -1.86267,4.752011 0,2.200005 1.33467,4.077343 3.90134,4.077343 1.42267,0 2.62534,-0.528002 3.52001,-1.408004 1.15867,-1.129336 1.78934,-2.948006 1.78934,-4.708011 0,-2.258671 -1.24667,-4.092009 -3.88668,-4.092009 z m -0.20533,1.437337 c 1.81867,0 2.27333,1.408003 2.27333,2.713339 0,1.24667 -0.484,2.93334 -1.32,3.784009 -0.528,0.528001 -1.20267,0.836002 -1.92134,0.836002 -1.672,0 -2.332,-1.232003 -2.332,-2.728006 0,-1.276003 0.484,-2.88934 1.34933,-3.754676 0.52801,-0.528001 1.18801,-0.850668 1.95068,-0.850668 z"
         style="font-weight:600;-inkscape-font-specification:'Myriad Pro Semi-Bold Italic';fill:#5a5a5a"
         id="path3818" />
      <path
         d="m 333.72485,85.205681 1.30534,-9.885356 h -2.28801 l -2.39067,4.634677 c -0.42533,0.850669 -0.89467,1.892004 -1.24667,2.830673 h -0.0587 c -0.0147,-0.938669 -0.11734,-1.965338 -0.19067,-2.84534 l -0.528,-4.62001 h -2.24401 l -2.52267,9.885356 h 1.584 l 1.14401,-4.649344 c 0.23466,-0.997336 0.54266,-2.493339 0.792,-3.622675 h 0.0293 c 0.0587,1.173336 0.14667,2.449339 0.264,3.549341 l 0.51334,4.605344 h 1.33467 l 2.42,-4.678677 c 0.54267,-1.041336 1.12934,-2.317339 1.64267,-3.476008 h 0.044 c -0.24933,1.217336 -0.45466,2.610673 -0.616,3.622675 l -0.64533,4.649344 z"
         style="font-weight:600;-inkscape-font-specification:'Myriad Pro Semi-Bold Italic';fill:#5a5a5a"
         id="path3820" />
      <path
         d="m 337.40617,75.320325 -1.87734,9.885356 h 1.70134 l 1.87733,-9.885356 z"
         style="font-weight:600;-inkscape-font-specification:'Myriad Pro Semi-Bold Italic';fill:#5a5a5a"
         id="path3822" />
      <path
         d="m 346.30883,83.533677 c -0.51333,0.234667 -1.26133,0.366668 -1.98,0.366668 -1.95067,0 -2.80134,-1.232003 -2.80134,-2.904007 0,-1.42267 0.55733,-2.66934 1.43733,-3.432008 0.66001,-0.601335 1.58401,-0.924002 2.50801,-0.924002 0.86534,0 1.54,0.176 1.86267,0.352001 l 0.49867,-1.37867 c -0.27867,-0.176001 -1.07067,-0.440001 -2.15601,-0.440001 -1.42267,0 -2.65467,0.396001 -3.68134,1.173336 -1.43733,1.056002 -2.31734,2.80134 -2.31734,4.869344 0,2.566673 1.64267,4.150677 4.20935,4.150677 1.15867,0 2.05333,-0.205334 2.58134,-0.454668 z"
         style="font-weight:600;-inkscape-font-specification:'Myriad Pro Semi-Bold Italic';fill:#5a5a5a"
         id="path3824" />
      <path
         d="m 347.40883,84.663013 c 0.44,0.337334 1.42267,0.674668 2.62534,0.689335 2.2,0 3.81334,-1.217336 3.81334,-3.197341 0,-1.202669 -0.71867,-1.994671 -1.92134,-2.625339 -0.924,-0.513335 -1.48133,-0.924002 -1.48133,-1.598671 0,-0.660001 0.616,-1.290669 1.716,-1.290669 0.792,-0.01467 1.452,0.264 1.77467,0.440001 l 0.55733,-1.408003 c -0.38133,-0.234668 -1.1,-0.498668 -2.2,-0.498668 -1.99467,0 -3.63734,1.173336 -3.63734,3.06534 0,1.188003 0.86533,1.965338 2.00934,2.581339 0.95333,0.513335 1.37867,0.953336 1.37867,1.598671 0,0.953335 -0.86534,1.46667 -1.81868,1.46667 -0.88,0 -1.672,-0.264001 -2.22933,-0.630668 z"
         style="font-weight:600;-inkscape-font-specification:'Myriad Pro Semi-Bold Italic';fill:#5a5a5a"
         id="path3826" />
      <path
         d="m 360.2568,85.205681 h 1.70134 l 0.77734,-4.077343 h 0.836 c 0.89467,0 1.34933,0.454668 1.43734,1.716004 0.088,1.188003 0.19066,2.126672 0.24933,2.361339 h 1.76 c -0.14666,-0.410668 -0.22,-1.540004 -0.33733,-2.772007 -0.088,-0.938668 -0.38134,-1.628003 -1.012,-1.877337 v -0.044 c 1.26133,-0.381334 2.288,-1.364003 2.288,-2.830673 0,-0.806669 -0.38133,-1.408004 -0.924,-1.804005 -0.616,-0.454667 -1.54,-0.630668 -2.49334,-0.630668 -0.86533,0 -1.78934,0.088 -2.42,0.234668 z m 3.31468,-8.521353 c 0.20533,-0.05867 0.484,-0.088 0.924,-0.088 0.968,0 1.68667,0.410667 1.68667,1.334669 0,1.07067 -0.90933,1.906672 -2.22934,1.906672 h -0.968 z"
         style="font-weight:600;-inkscape-font-specification:'Myriad Pro Semi-Bold Italic';fill:#5a5a5a"
         id="path3828" />
      <path
         d="m 374.77685,79.368334 h -3.56401 l 0.49867,-2.596006 h 3.76934 l 0.27866,-1.452003 h -5.48534 l -1.87734,9.885356 h 5.70535 l 0.27866,-1.452003 h -3.98934 l 0.55734,-2.948007 h 3.54934 z"
         style="font-weight:600;-inkscape-font-specification:'Myriad Pro Semi-Bold Italic';fill:#5a5a5a"
         id="path3830" />
      <path
         d="m 375.39282,84.663013 c 0.44,0.337334 1.42267,0.674668 2.62534,0.689335 2.20001,0 3.81334,-1.217336 3.81334,-3.197341 0,-1.202669 -0.71866,-1.994671 -1.92133,-2.625339 -0.92401,-0.513335 -1.48134,-0.924002 -1.48134,-1.598671 0,-0.660001 0.616,-1.290669 1.716,-1.290669 0.792,-0.01467 1.45201,0.264 1.77467,0.440001 l 0.55734,-1.408003 c -0.38134,-0.234668 -1.1,-0.498668 -2.20001,-0.498668 -1.99467,0 -3.63734,1.173336 -3.63734,3.06534 0,1.188003 0.86534,1.965338 2.00934,2.581339 0.95334,0.513335 1.37867,0.953336 1.37867,1.598671 0,0.953335 -0.86534,1.46667 -1.81867,1.46667 -0.88,0 -1.67201,-0.264001 -2.22934,-0.630668 z"
         style="font-weight:600;-inkscape-font-specification:'Myriad Pro Semi-Bold Italic';fill:#5a5a5a"
         id="path3832" />
      <path
         d="m 388.46083,75.158991 c -1.33467,0 -2.58134,0.513335 -3.46134,1.37867 -1.188,1.144003 -1.86267,2.992007 -1.86267,4.752011 0,2.200005 1.33467,4.077343 3.90134,4.077343 1.42267,0 2.62534,-0.528002 3.52001,-1.408004 1.15867,-1.129336 1.78933,-2.948006 1.78933,-4.708011 0,-2.258671 -1.24666,-4.092009 -3.88667,-4.092009 z m -0.20533,1.437337 c 1.81867,0 2.27333,1.408003 2.27333,2.713339 0,1.24667 -0.484,2.93334 -1.32,3.784009 -0.528,0.528001 -1.20267,0.836002 -1.92134,0.836002 -1.672,0 -2.332,-1.232003 -2.332,-2.728006 0,-1.276003 0.484,-2.88934 1.34933,-3.754676 0.52801,-0.528001 1.18801,-0.850668 1.95068,-0.850668 z"
         style="font-weight:600;-inkscape-font-specification:'Myriad Pro Semi-Bold Italic';fill:#5a5a5a"
         id="path3834" />
      <path
         d="m 394.7235,75.320325 -1.07067,5.632013 c -0.0733,0.454667 -0.132,0.953335 -0.132,1.37867 0,2.068004 1.24667,3.050673 3.09468,3.036007 2.43467,0 3.81334,-1.320003 4.38534,-4.297344 l 1.1,-5.749346 h -1.716 l -1.1,5.77868 c -0.38134,2.024004 -1.23201,2.830673 -2.44934,2.830673 -1.012,0 -1.61334,-0.630668 -1.61334,-1.642671 0,-0.410667 0.044,-0.821335 0.11734,-1.202669 l 1.1,-5.764013 z"
         style="font-weight:600;-inkscape-font-specification:'Myriad Pro Semi-Bold Italic';fill:#5a5a5a"
         id="path3836" />
      <path
         d="m 402.26219,85.205681 h 1.70134 l 0.77733,-4.077343 h 0.836 c 0.89467,0 1.34934,0.454668 1.43734,1.716004 0.088,1.188003 0.19067,2.126672 0.24934,2.361339 h 1.76 c -0.14667,-0.410668 -0.22,-1.540004 -0.33733,-2.772007 -0.088,-0.938668 -0.38134,-1.628003 -1.01201,-1.877337 v -0.044 c 1.26134,-0.381334 2.28801,-1.364003 2.28801,-2.830673 0,-0.806669 -0.38134,-1.408004 -0.924,-1.804005 -0.61601,-0.454667 -1.54001,-0.630668 -2.49334,-0.630668 -0.86534,0 -1.78934,0.088 -2.42001,0.234668 z m 3.31467,-8.521353 c 0.20534,-0.05867 0.48401,-0.088 0.92401,-0.088 0.968,0 1.68667,0.410667 1.68667,1.334669 0,1.07067 -0.90934,1.906672 -2.22934,1.906672 h -0.968 z"
         style="font-weight:600;-inkscape-font-specification:'Myriad Pro Semi-Bold Italic';fill:#5a5a5a"
         id="path3838" />
      <path
         d="m 417.39822,83.533677 c -0.51334,0.234667 -1.26134,0.366668 -1.98001,0.366668 -1.95067,0 -2.80134,-1.232003 -2.80134,-2.904007 0,-1.42267 0.55734,-2.66934 1.43734,-3.432008 0.66,-0.601335 1.584,-0.924002 2.50801,-0.924002 0.86533,0 1.54,0.176 1.86267,0.352001 l 0.49867,-1.37867 c -0.27867,-0.176001 -1.07067,-0.440001 -2.15601,-0.440001 -1.42267,0 -2.65467,0.396001 -3.68134,1.173336 -1.43734,1.056002 -2.31734,2.80134 -2.31734,4.869344 0,2.566673 1.64267,4.150677 4.20934,4.150677 1.15867,0 2.05334,-0.205334 2.58134,-0.454668 z"
         style="font-weight:600;-inkscape-font-specification:'Myriad Pro Semi-Bold Italic';fill:#5a5a5a"
         id="path3840" />
      <path
         d="m 425.1569,79.368334 h -3.56401 l 0.49867,-2.596006 h 3.76934 l 0.27867,-1.452003 h -5.48535 l -1.87734,9.885356 h 5.70535 l 0.27867,-1.452003 h -3.98935 l 0.55734,-2.948007 h 3.54934 z"
         style="font-weight:600;-inkscape-font-specification:'Myriad Pro Semi-Bold Italic';fill:#5a5a5a"
         id="path3842" />
    </g>
  </g>
  <g
     inkscape:groupmode="layer"
     id="layer7"
     inkscape:label="e-leaf" />
  <g
     id="e-and-leaf"
     transform="translate(0.02193838,1.6693025)">
    <g
       id="g2242">
      <polyline
         fill="none"
         stroke="#5f9a42"
         stroke-width="0.999"
         stroke-miterlimit="10"
         points="301.299,28.674 302.878,33.007     305.872,33.007   "
         id="polyline2216" />
      <polyline
         fill="none"
         stroke="#5f9a42"
         stroke-width="0.999"
         stroke-miterlimit="10"
         points="309.863,34.007 306.87,37.008     308.866,41.008   "
         id="polyline2218" />
      <path
         fill="none"
         stroke="#5f9a42"
         stroke-width="0.999"
         stroke-miterlimit="10"
         d="m 307.867,38.008 c 0,0 2.908,-0.963 7.152,-0.443 4.324,0.526 9.812,2.526 9.812,2.526"
         id="path2220" />
      <path
         fill="none"
         stroke="#5f9a42"
         stroke-width="0.999"
         stroke-miterlimit="10"
         d="m 310.861,18.007 c 0,0 -2.494,4.333 -3.991,7 -1.109,1.977 -3.992,8 -3.992,8"
         id="path2222" />
      <path
         fill-rule="evenodd"
         clip-rule="evenodd"
         fill="#ffffff"
         d="m 303.291,37.653 c 2.824,-2.431 4.846,-5.806 5.631,-9.457 0.825,-3.633 0.038,-7.692 -2.478,-10.509 1.112,1.709 1.071,3.333 0.628,4.785 -0.508,1.791 -1.524,3.403 -2.409,4.883 -0.897,1.503 -1.639,2.951 -1.902,4.89 -0.234,1.929 -0.294,4.088 0.53,5.408"
         id="path2224" />
      <path
         fill-rule="evenodd"
         clip-rule="evenodd"
         fill="#ffffff"
         d="m 306.444,17.688 c 1.12,1.722 0.848,3.447 0.392,4.854 -0.522,1.751 -1.538,3.318 -2.416,4.76 -0.889,1.467 -1.615,2.887 -1.861,4.799 -0.207,1.866 -0.086,4.151 0.692,5.492 -0.779,-1.33 -0.723,-3.447 -0.49,-5.348 0.264,-1.937 1.005,-3.386 1.902,-4.889 0.886,-1.479 1.901,-3.091 2.409,-4.882 0.444,-1.453 0.485,-3.077 -0.628,-4.786"
         id="path2226" />
      <path
         fill-rule="evenodd"
         clip-rule="evenodd"
         fill="#ffffff"
         d="m 303.291,37.653 c 2.824,-2.431 4.846,-5.806 5.631,-9.457 0.825,-3.633 0.038,-7.692 -2.478,-10.509 3.399,2.575 6.926,5.926 6.706,11.518 -0.077,3.026 -1.416,6.042 -3.766,7.764 -2.378,1.776 -5.036,1.786 -6.093,0.684"
         id="path2228" />
      <path
         fill-rule="evenodd"
         clip-rule="evenodd"
         fill="#5f9a42"
         d="m 306.436,17.695 c 1.865,2.186 2.847,5.072 2.719,7.93 -0.357,-0.751 -0.69,-1.541 -0.924,-2.354 0.217,0.923 0.518,1.846 0.907,2.737 -0.079,1.246 -0.33,2.477 -0.714,3.663 -0.456,-1.221 -0.636,-2.586 -0.672,-3.904 -0.022,1.379 0.119,2.849 0.579,4.194 -0.329,0.941 -0.74,1.854 -1.223,2.727 -0.641,-1.201 -0.849,-2.71 -0.856,-4.112 -0.051,1.431 0.107,3.021 0.739,4.327 -0.468,0.814 -0.994,1.594 -1.579,2.328 -0.777,-1.264 -0.896,-2.937 -0.828,-4.457 -0.127,1.53 -0.068,3.268 0.682,4.632 -0.623,0.753 -1.314,1.465 -2.066,2.094 v 0 l 0.224,0.279 c 0.89,-0.763 1.684,-1.641 2.387,-2.562 1.491,0.454 3.445,-0.363 4.846,-2.03 -1.426,1.595 -3.306,2.301 -4.708,1.843 0.562,-0.77 1.075,-1.577 1.507,-2.427 1.438,-0.158 2.957,-1.391 3.759,-3.192 -0.84,1.727 -2.292,2.84 -3.646,2.97 0.456,-0.902 0.825,-1.848 1.112,-2.815 1.169,-0.812 2.003,-2.469 2.03,-4.223 -0.091,1.671 -0.877,3.17 -1.94,3.928 0.333,-1.217 0.525,-2.475 0.537,-3.737 0.457,-0.865 0.647,-1.985 0.445,-3.068 0.134,0.975 -0.076,1.93 -0.444,2.681 -0.033,-2.729 -1.058,-5.427 -2.854,-7.464 z"
         id="path2230" />
      <path
         fill-rule="evenodd"
         clip-rule="evenodd"
         fill="#ffffff"
         d="m 327.667,25.859 c -1.364,2.81 -3.602,3.528 -5.915,4.065 -4.057,0.942 -7.181,2.23 -9.537,5.94 -1.438,2.262 -2.31,4.506 -4.445,5.295 l 0.039,0.235 c 3.008,-0.131 5.938,-1.109 8.569,-2.605 5.024,-2.804 9.386,-7.42 11.289,-12.93"
         id="path2232" />
      <path
         fill-rule="evenodd"
         clip-rule="evenodd"
         fill="#ffffff"
         d="m 327.667,25.859 c -1.364,2.81 -3.831,3.267 -6.146,3.804 -4.059,0.941 -7.182,2.229 -9.537,5.939 -1.438,2.262 -2.079,4.769 -4.215,5.558 2.136,-0.789 3.008,-3.033 4.445,-5.295 2.356,-3.71 5.48,-4.998 9.537,-5.94 2.314,-0.538 4.552,-1.257 5.916,-4.066"
         id="path2234" />
      <path
         fill-rule="evenodd"
         clip-rule="evenodd"
         fill="#ffffff"
         d="m 327.642,26.025 c -0.462,2.507 -0.942,5.33 -1.921,7.879 -1.397,3.629 -3.9,6.509 -7.76,8.111 -2.337,0.972 -4.335,0.896 -6.752,0.179 -0.815,-0.242 -1.614,-0.509 -2.436,-0.697 0.031,-0.004 -0.169,-0.077 -0.334,-0.141 2.787,-0.23 5.491,-1.175 7.938,-2.566 4.329,-2.416 8.166,-6.179 10.362,-10.7 0.337,-0.67 0.639,-1.358 0.903,-2.065"
         id="path2236" />
      <path
         fill-rule="evenodd"
         clip-rule="evenodd"
         fill="#5f9a42"
         d="m 313.48,40.006 c 0.568,-2.418 2.006,-4.562 3.716,-6.361 -1.793,1.781 -3.333,3.942 -3.964,6.45 -1.763,0.619 -3.611,0.984 -5.463,1.065 l 1.005,0.336 c 1.627,-0.181 3.233,-0.574 4.764,-1.154 l 0.058,-0.014 c 1.777,0.458 3.701,0.378 5.383,-0.334 -1.625,0.605 -3.396,0.635 -5.045,0.192 0.903,-0.365 1.779,-0.796 2.614,-1.288 0.13,-0.075 0.259,-0.151 0.386,-0.228 l 0.126,0.015 c 1.803,0.13 3.573,-0.547 4.95,-1.638 -1.378,0.996 -3.076,1.571 -4.754,1.428 1.115,-0.691 2.186,-1.466 3.191,-2.315 1.196,-0.069 2.356,-0.469 3.34,-1.115 -0.942,0.535 -2.004,0.843 -3.068,0.883 0.735,-0.637 1.434,-1.314 2.092,-2.028 0.705,-0.165 1.381,-0.438 1.99,-0.811 -0.559,0.265 -1.15,0.447 -1.752,0.547 0.516,-0.574 1.003,-1.171 1.461,-1.79 l 0.002,-0.001 0.002,-0.004 V 31.84 l 0.002,-0.002 10e-4,-0.001 10e-4,-0.002 0.002,-0.001 0.001,-0.002 10e-4,-0.001 0.001,-0.002 10e-4,-0.002 0.002,-0.001 10e-4,-0.003 0.001,-0.002 10e-4,-0.001 0.002,-0.002 10e-4,-0.001 0.002,-0.002 0.001,-0.001 10e-4,-0.003 0.002,-0.002 10e-4,-0.001 0.004,-0.005 10e-4,-0.002 0.034,-0.045 0.001,-0.002 10e-4,-0.002 0.002,-10e-4 0.001,-0.002 10e-4,-0.002 10e-4,-0.001 0.002,-0.002 c 0.067,-0.094 0.136,-0.188 0.204,-0.283 l 0.766,-0.299 -0.596,0.056 c 1.111,-1.607 2.022,-3.347 2.681,-5.192 l 0.026,-0.169 c -0.7,1.923 -1.675,3.726 -2.864,5.375 l -0.047,0.065 v 10e-4 c -0.066,0.091 -0.133,0.182 -0.201,0.271 -0.041,-0.252 -0.073,-0.507 -0.098,-0.763 -0.04,0.33 -0.068,0.663 -0.081,0.999 -0.359,0.469 -0.735,0.924 -1.128,1.366 -0.062,-0.505 -0.09,-1.014 -0.088,-1.529 -0.078,0.562 -0.121,1.13 -0.119,1.704 l -0.003,0.06 c -0.627,0.694 -1.237,1.288 -1.937,1.909 0.053,-0.958 0.224,-1.913 0.508,-2.838 -0.377,0.973 -0.629,1.998 -0.742,3.044 -1.129,0.979 -2.339,1.859 -3.606,2.628 0.348,-1.642 1.081,-3.193 2.054,-4.575 -1.059,1.375 -1.888,2.955 -2.305,4.665 l -0.047,0.089 c -0.183,0.108 -0.368,0.214 -0.555,0.318 -0.935,0.534 -1.917,0.989 -2.929,1.36"
         id="path2238" />
      <path
         fill-rule="evenodd"
         clip-rule="evenodd"
         fill="#ffffff"
         d="m 307.77,41.16 1.08,-0.588 c -1.36,0.06 -4.139,0.216 -5.129,-0.355 -0.887,-0.513 -0.077,-1.727 0.189,-2.201 l -0.711,-0.517 v 0 c -0.729,1.135 -2.175,2.25 -3.314,2.51 -4.304,0.687 -7.189,0.437 -8.67,0.437 -1.174,0 -2.076,-0.825 -2.607,-1.497 -0.278,-0.392 -0.419,-1.008 -0.419,-1.398 5.477,0.139 8.857,-1.121 8.857,-4.592 0,-2.549 -1.983,-4.116 -4.75,-4.116 -4.946,0 -7.963,4.339 -7.963,8.511 0,3.556 2.012,5.768 5.923,5.768 1.509,0 15.582,-1.273 18.734,-1.624 z m -15.978,-9.38 c 0.923,0 1.481,0.478 1.481,1.148 v 0.029 c 0,1.26 -1.565,1.679 -4.693,1.65 0.278,-1.259 1.341,-2.827 3.212,-2.827"
         id="path2240" />
    </g>
  </g>
  <g
     inkscape:groupmode="layer"
     id="layer1"
     inkscape:label="project-title"
     transform="matrix(0.75078785,0,0,0.75078785,0,1.6819499)">
    <g
       aria-label="Phytozom         14"
       id="text682"
       style="font-style:italic;font-weight:bold;font-size:37.3333px;font-family:'Myriad Pro';-inkscape-font-specification:'Myriad Pro Bold Italic'">
      <path
         d="m 215.63826,57.442036 h 5.26399 l 1.71733,-9.071993 c 0.56,0.03733 1.30667,0.149334 2.20267,0.149334 3.06133,0 6.01066,-0.746666 8.06399,-2.351998 1.94133,-1.493332 3.39733,-3.919997 3.39733,-7.055994 0,-2.426665 -1.008,-4.218663 -2.72533,-5.375996 -1.82933,-1.269332 -4.40533,-1.642665 -6.68266,-1.642665 -2.42666,0 -4.92799,0.224 -6.57066,0.634666 z m 9.22132,-20.906649 c 0.448,-0.07467 1.19467,-0.149333 2.20267,-0.149333 2.05333,0 3.80799,0.783999 3.80799,3.17333 0,2.538665 -2.12799,4.591996 -5.33866,4.591996 -0.93333,0 -1.53066,-0.07467 -2.09066,-0.186666 z"
         style="fill:#ffffff"
         id="path3775" />
      <path
         d="m 241.6595,57.442036 1.60533,-8.36266 c 0.672,-3.658663 2.576,-5.973328 4.48,-5.973328 1.344,0 1.82933,0.858666 1.82933,2.090665 0,0.746666 -0.0747,1.530665 -0.224,2.239998 l -1.904,10.005325 h 5.376 l 1.97866,-10.453325 c 0.18667,-1.045332 0.336,-2.426664 0.336,-3.28533 0,-3.135998 -1.75466,-4.927996 -4.592,-4.927996 -2.38933,0 -4.29333,1.082666 -5.82399,2.762664 h -0.0747 l 2.05333,-10.602657 h -5.37599 l -5.04,26.506644 z"
         style="fill:#ffffff"
         id="path3777" />
      <path
         d="m 258.01144,39.186051 3.58399,16.575986 c 0.0747,0.373333 0.0747,0.597333 -0.0747,0.895999 -0.70934,1.231999 -1.75467,2.314665 -2.98667,3.173331 -1.04533,0.709333 -2.24,1.157332 -3.09866,1.418665 l 1.19466,4.62933 c 1.19467,-0.186667 3.73333,-1.119999 5.86133,-3.135998 2.42667,-2.277331 4.592,-5.562661 7.01866,-10.415991 l 6.53333,-13.141322 h -5.67466 l -3.32267,8.063993 c -0.78399,1.978665 -1.19466,3.135998 -1.60533,4.255997 h -0.0747 c -0.14934,-1.157333 -0.336,-2.463998 -0.59734,-4.367997 l -1.12,-7.951993 z"
         style="fill:#ffffff"
         id="path3779" />
      <path
         d="m 280.33673,35.714054 -0.672,3.434664 h -2.352 l -0.74666,4.106663 h 2.31466 l -1.38133,7.242661 c -0.29867,1.418665 -0.41067,2.426664 -0.41067,3.39733 0,2.314665 1.53067,3.95733 4.77867,3.95733 1.11999,0 2.46399,-0.149333 3.17333,-0.410666 l 0.59733,-4.218663 c -0.448,0.07467 -1.008,0.07467 -1.456,0.07467 -1.19467,0 -1.568,-0.634666 -1.568,-1.530665 0,-0.634666 0.14933,-1.605332 0.29867,-2.314665 l 1.232,-6.197328 h 3.88266 l 0.82133,-4.106663 h -3.91999 l 0.93333,-4.927996 z"
         style="fill:#ffffff"
         id="path3781" />
      <path
         d="m 299.89932,38.738052 c -6.49599,0 -10.90132,5.226662 -10.90132,11.53599 0,4.554663 3.09866,7.57866 7.72799,7.57866 6.30933,0 10.90132,-4.890663 10.90132,-11.573323 0,-4.18133 -2.83733,-7.541327 -7.72799,-7.541327 z m -0.70933,4.106663 c 2.128,0 2.87466,1.791998 2.87466,3.471997 0,3.098664 -1.68,7.429327 -4.55466,7.429327 -1.904,0 -2.94933,-1.418666 -2.94933,-3.546664 0,-2.837331 1.53066,-7.35466 4.62933,-7.35466 z"
         style="fill:#ffffff"
         id="path3783" />
      <path
         d="m 307.44055,57.442036 h 15.15732 l 0.85867,-4.367997 h -8.58666 l 0.0373,-0.07467 c 1.64267,-1.343999 2.8,-2.501331 4.44266,-4.218663 l 5.78667,-6.197328 0.63466,-3.397331 h -14.26132 l -0.85867,4.367997 h 7.80266 l -0.0373,0.07467 c -1.75466,1.493332 -2.912,2.613331 -4.44266,4.218663 l -5.936,6.346661 z"
         style="fill:#ffffff"
         id="path3785" />
      <path
         d="m 337.23248,38.738052 c -6.49599,0 -10.90132,5.226662 -10.90132,11.53599 0,4.554663 3.09866,7.57866 7.72799,7.57866 6.30933,0 10.90133,-4.890663 10.90133,-11.573323 0,-4.18133 -2.83734,-7.541327 -7.728,-7.541327 z m -0.70933,4.106663 c 2.128,0 2.87466,1.791998 2.87466,3.471997 0,3.098664 -1.68,7.429327 -4.55466,7.429327 -1.904,0 -2.94933,-1.418666 -2.94933,-3.546664 0,-2.837331 1.53067,-7.35466 4.62933,-7.35466 z"
         style="fill:#ffffff"
         id="path3787" />
      <path
         d="m 351.75508,57.442036 1.49333,-8.213327 c 0.63466,-3.62133 2.576,-6.159994 4.40533,-6.159994 1.30666,0 1.71733,0.970665 1.71733,2.239998 0,0.634666 -0.112,1.343999 -0.224,2.090665 l -1.904,10.042658 h 5.18933 l 1.53067,-8.287993 c 0.70933,-3.695997 2.50133,-6.085328 4.29332,-6.085328 1.232,0 1.792,0.895999 1.792,2.165331 0,0.709333 -0.112,1.493332 -0.26133,2.202665 l -1.82933,10.005325 h 5.22666 l 1.97867,-10.639991 c 0.14933,-0.933333 0.29866,-2.389332 0.29866,-3.135998 0,-3.098664 -1.64266,-4.927995 -4.44266,-4.927995 -2.38933,0 -4.66666,1.119999 -6.30933,3.471997 -0.14933,-1.605332 -1.41866,-3.471997 -4.33066,-3.471997 -2.352,0 -4.592,1.045332 -6.272,3.39733 h -0.0747 l 0.336,-2.949331 h -4.592 c -0.224,1.642665 -0.52267,3.62133 -0.93333,5.935995 l -2.27733,12.31999 z"
         style="fill:#ffffff"
         id="path3789" />
      <path
         d="m 445.75967,57.442036 h 5.15199 l 4.592,-24.266646 h -4.40533 l -6.71999,2.94933 0.18666,4.18133 4.74133,-2.090665 h 0.0747 z"
         style="fill:#ffffff"
         id="path3791" />
      <path
         d="m 471.20928,57.442036 1.12,-5.861329 h 2.87467 l 0.74666,-4.143996 h -2.83733 l 2.688,-14.261321 h -6.60799 l -11.57333,14.783987 -0.672,3.62133 h 10.34133 l -1.12,5.861329 z m -8.21332,-10.005325 0.0373,-0.07467 3.99467,-5.151995 c 1.15733,-1.605332 2.09066,-3.135998 3.17333,-4.778663 h 0.14933 c -0.37333,1.530665 -0.82133,3.210664 -1.15733,4.741329 l -1.12,5.263996 z"
         style="fill:#ffffff"
         id="path3793" />
    </g>
  </g>
</svg>
